<svg height="511pt" viewBox="0 1 511 511.99999" width="511pt" xmlns="http://www.w3.org/2000/svg">
    <path d="m212.078125 300.421875-35.261719 35.261719h-44.082031v141.054687h44.082031l17.628906 17.628907h220.394532v-193.945313zm0 0"
          fill="#c6a16f"/>
    <g fill="#ffd789">
        <path d="m256.464844 0 13.945312 28.273438 31.199219 4.53125-22.566406 22.011718 5.324219 31.066406-27.902344-14.667968-27.910156 14.667968 5.332031-31.066406-22.574219-22.011718 31.199219-4.53125zm0 0"/>
        <path d="m122.84375 29.410156 13.957031 28.269532 31.199219 4.53125-22.578125 22.003906 5.332031 31.078125-27.910156-14.671875-27.902344 14.671875 5.335938-31.078125-22.578125-22.003906 31.199219-4.53125zm0 0"/>
        <path d="m389.46875 29.410156 13.945312 28.269532 31.199219 4.53125-22.578125 22.003906 5.335938 31.078125-27.902344-14.671875-27.910156 14.671875 5.332031-31.078125-22.578125-22.003906 31.199219-4.53125zm0 0"/>
        <path d="m466.65625 124.109375 13.957031 28.269531 31.199219 4.53125-22.578125 22.003906 5.335937 31.078126-27.914062-14.671876-27.898438 14.671876 5.332032-31.078126-22.578125-22.003906 31.199219-4.53125zm0 0"/>
        <path d="m45.65625 124.109375 13.945312 28.269531 31.199219 4.53125-22.578125 22.003906 5.332032 31.078126-27.898438-14.671876-27.914062 14.671876 5.335937-31.078126-22.578125-22.003906 31.199219-4.53125zm0 0"/>
    </g>
    <path d="m273.886719 141.933594c-9.792969 0-17.730469 7.9375-17.730469 17.726562v24.464844c0 23.660156-9.398438 46.355469-26.128906 63.085938l-27.082032 27.082031c-16.730468 16.730469-26.132812 39.421875-26.132812 63.085937v68.832032h53.644531c20.96875 0 39.945313-12.414063 48.347657-31.621094l7.84375-46.125c3.15625-18.546875 9.542968-36.394532 18.875-52.726563 13.863281-24.261719 21.15625-51.71875 21.160156-79.660156v-1.347656c0-29.160157-23.640625-52.796875-52.796875-52.796875zm0 0"
          fill="#e8d8bf"/>
    <path d="m62.210938 309.238281h79.339843v193.945313h-79.339843zm0 0" fill="#ccdaec"/>
    <path d="m361.945312 300.421875h52.894532c14.605468 0 26.445312 11.84375 26.445312 26.449219 0 14.605468-11.839844 26.445312-26.445312 26.445312h-52.894532c-14.605468 0-26.449218-11.839844-26.449218-26.445312 0-14.609375 11.84375-26.449219 26.449218-26.449219zm0 0"
          fill="#e8d8bf"/>
    <path d="m353.128906 353.316406h61.710938v52.894532h-61.710938c-14.605468 0-26.445312-11.839844-26.445312-26.445313 0-14.609375 11.839844-26.449219 26.445312-26.449219zm0 0"
          fill="#e8d8bf"/>
    <path d="m353.128906 406.210938h61.710938v52.894531h-61.710938c-14.605468 0-26.445312-11.839844-26.445312-26.445313 0-14.609375 11.839844-26.449218 26.445312-26.449218zm0 0"
          fill="#e8d8bf"/>
    <path d="m353.128906 459.105469h61.710938v52.894531h-61.710938c-14.605468 0-26.445312-11.839844-26.445312-26.445312 0-14.609376 11.839844-26.449219 26.445312-26.449219zm0 0"
          fill="#e8d8bf"/>
</svg>
