<svg height="480pt" viewBox="0 0 480.03418 480" width="480pt" xmlns="http://www.w3.org/2000/svg">
    <path d="m402.253906 372.164062-156.960937-51.535156c.839843-10.753906-3.851563-21.199218-12.449219-27.714844-8.59375-6.515624-19.917969-8.207031-30.046875-4.492187l-109.597656-94.703125c-1.804688-1.5625-4.210938-2.234375-6.5625-1.839844-2.351563.394532-4.40625 1.820313-5.597657 3.886719l-12.320312 21.398437c-21.941406-8.199218-46.59375.664063-58.289062 20.960938l-4 6.921875c-6.398438 11.082031-8.105469 24.265625-4.742188 36.617187 3.367188 12.347657 11.523438 22.84375 22.664062 29.148438l122.140626 62.609375c-2.242188 9.410156-.113282 19.328125 5.792968 26.992187l-25.191406 43.632813c-1.617188 2.800781-1.390625 6.300781.582031 8.871094 1.96875 2.566406 5.292969 3.695312 8.417969 2.855469l25.0625-6.71875 6.714844 25.0625c.835937 3.121093 3.46875 5.429687 6.671875 5.855468.347656.046875.695312.070313 1.046875.074219 2.859375 0 5.503906-1.523437 6.9375-4l34.496094-59.753906 84.101562 54.328125c11.03125 6.371094 24.144531 8.097656 36.449219 4.796875 12.304687-3.300781 22.792969-11.359375 29.152343-22.398438l4-6.917969 36-62.359374c1.203126-2.089844 1.402344-4.605469.542969-6.859376-.863281-2.25-2.695312-3.992187-4.984375-4.742187zm-180.800781-67.613281c7.648437 4.417969 10.269531 14.203125 5.847656 21.855469l-36 62.398438c-4.445312 7.589843-14.183593 10.164062-21.800781 5.765624-7.617188-4.398437-10.257812-14.121093-5.910156-21.765624l36-62.351563c2.113281-3.695313 5.613281-6.398437 9.726562-7.503906 4.109375-1.109375 8.492188-.53125 12.175782 1.601562zm-131.359375-92.402343 80.113281 69.25-87.480469-56.496094zm-73.007812 65.183593c-2.214844-8.199219-1.0625-16.941406 3.199218-24.285156l4-6.921875c8.757813-15.175781 28.085938-20.488281 43.367188-11.917969l114.738281 74.09375-29.183594 50.558594-121.21875-62.101563c-7.363281-4.222656-12.730469-11.21875-14.902343-19.425781zm161.230468 173.984375-3.773437-14.128906c-1.144531-4.265625-5.53125-6.800781-9.800781-5.652344l-14.136719 3.78125 14.480469-25.070312c11.394531 4.816406 24.550781 2.59375 33.726562-5.703125l4.746094 3.054687zm131.152344 5.65625-101.261719-65.414062 29.992188-51.945313 106.925781 54.832031c15.304688 8.835938 20.550781 28.40625 11.714844 43.710938l-4 6.921875c-8.765625 15.164063-28.09375 20.46875-43.371094 11.894531zm65.136719-49.597656c-3.628907-11.421875-11.414063-21.058594-21.816407-27.007812l-41.296874-21.121094 76.417968 25.085937zm0 0"/>
    <path d="m469.671875 88.046875 9.925781-30.671875c1.210938-3.75-.484375-7.824219-4-9.601562l-28.679687-14.65625-14.664063-28.710938c-1.777344-3.515625-5.851562-5.214844-9.601562-4l-30.664063 9.960938-30.679687-9.929688c-3.746094-1.210938-7.820313.484375-9.597656 4l-14.648438 28.679688-28.710938 14.664062c-.128906.070312-.21875.191406-.34375.265625h-140.019531c-22.078125.023437-39.972656 17.917969-40 40v110c0 4.417969 3.582031 8 8 8 4.421875 0 8-3.582031 8-8v-110c0-13.257813 10.746094-24 24-24h138.554688l7.765625 24-9.925782 30.671875c-1.214843 3.746094.484376 7.820312 4 9.597656l28.710938 14.664063 14.664062 28.710937c1.777344 3.515625 5.851563 5.214844 9.601563 4l30.628906-9.964844 8 2.589844v175.730469c0 4.417969 3.582031 8 8 8 4.421875 0 8-3.582031 8-8v-170.554687l6.683594 2.160156c3.746094 1.214844 7.820313-.484375 9.597656-4l14.664063-28.710938 28.710937-14.664062c3.515625-1.777344 5.214844-5.851563 4-9.601563zm-16 2.460937 8.621094 26.648438-24.941407 12.746094c-1.5.765625-2.71875 1.988281-3.480468 3.488281l-12.761719 24.941406-26.65625-8.621093c-1.597656-.523438-3.320313-.523438-4.917969 0l-26.65625 8.621093-12.746094-24.941406c-.765624-1.503906-1.984374-2.722656-3.488281-3.488281l-24.941406-12.746094 8.621094-26.648438c.53125-1.597656.53125-3.328124 0-4.925781l-8.621094-26.648437 24.941406-12.746094c1.503907-.765625 2.722657-1.984375 3.488281-3.484375l12.746094-24.945313 26.65625 8.625c1.597656.519532 3.320313.519532 4.917969 0l26.65625-8.625 12.746094 24.945313c.761719 1.496094 1.980469 2.71875 3.480469 3.484375l24.941406 12.746094-8.625 26.648437c-.515625 1.601563-.515625 3.324219 0 4.925781zm0 0"/>
    <path d="m391.988281 48.046875c-22.089843 0-40 17.90625-40 40 0 22.089844 17.910157 40 40 40 22.09375 0 40-17.910156 40-40-.023437-22.082031-17.917969-39.976563-40-40zm0 64c-13.253906 0-24-10.746094-24-24 0-13.257813 10.746094-24 24-24 13.257813 0 24 10.742187 24 24 0 13.253906-10.742187 24-24 24zm0 0"/>
    <path d="m199.988281 208.046875h136c4.421875 0 8-3.582031 8-8s-3.578125-8-8-8h-136c-4.417969 0-8 3.582031-8 8s3.582031 8 8 8zm0 0"/>
    <path d="m335.988281 232.046875h-112c-4.417969 0-8 3.582031-8 8s3.582031 8 8 8h112c4.421875 0 8-3.582031 8-8s-3.578125-8-8-8zm0 0"/>
    <path d="m335.988281 272.046875h-56c-4.417969 0-8 3.582031-8 8s3.582031 8 8 8h56c4.421875 0 8-3.582031 8-8s-3.578125-8-8-8zm0 0"/>
    <path d="m215.988281 128.046875h48c4.421875 0 8-3.582031 8-8s-3.578125-8-8-8h-48c-13.253906 0-24 10.742187-24 24 0 13.253906 10.746094 24 24 24h48c4.421875 0 8-3.582031 8-8s-3.578125-8-8-8h-48c-4.417969 0-8-3.582031-8-8s3.582031-8 8-8zm0 0"/>
</svg>
